{"title":"Baggage Claim 2013 CAM XViD UNiQUE","uid":9006745,"size":1480042126,"categoryP":"video","categoryS":"movies","magnet":"?xt=urn:btih:4407ba41694e6328b673cff3190872624143f539&amp;dn=Baggage+Claim+2013+CAM+XViD+UNiQUE&amp;tr=udp%3A%2F%2Ftracker.openbittorrent.com%3A80&amp;tr=udp%3A%2F%2Fopen.demonii.com%3A1337&amp;tr=udp%3A%2F%2Ftracker.coppersurfer.tk%3A6969&amp;tr=udp%3A%2F%2Fexodus.desync.com%3A6969","seeders":4,"leechers":1,"uploader":"TeX","files":3,"time":1381049572,"description":" [img]http://d97a3ad6c1b09e180027-5c35be6f174b10f62347680d094e609a.r46.cf2.rackcdn.com/banner-baggage-claim-baggage_film.jpg[/img]\n\nFormat: AVI\nFormat/Info: Audio Video Interleave\nFile size: 1.37 GiB\nDuration: 1h 33mn\nOverall bit rate: 2 089 Kbps\nWriting application: VirtualDubMod 1.5.10.2 (build 2540/release)\nWriting library: VirtualDubMod build 2540/release\n\nVideo\nID: 0\nFormat: MPEG-4 Visual\nFormat profile: Advanced Simple@L5\nFormat settings, BVOP: 2\nFormat settings, QPel: No\nFormat settings, GMC: No warppoints\nFormat settings, Matrix: Default (H.263)\nMuxing mode: Packed bitstream\nCodec ID: XVID\nCodec ID/Hint: XviD\nDuration: 1h 33mn\nBit rate: 1 950 Kbps\nWidth: 720 pixels\nHeight: 364 pixels\nDisplay aspect ratio: 1.978\nFrame rate: 29.970 fps\nColor space: YUV\nChroma subsampling: 4:2:0\nBit depth: 8 bits\nScan type: Progressive\nCompression mode: Lossy\nBits/(Pixel*Frame): 0.248\nStream size: 1.28 GiB (93%)\nWriting library: XviD 64\n\nAudio\nID: 1\nFormat: AC-3\nFormat/Info: Audio Coding 3\nMode extension: CM (complete main)\nFormat settings, Endianness: Big\nCodec ID: 2000\nDuration: 1h 33mn\nBit rate mode: Constant\nBit rate: 128 Kbps\nChannel(s): 2 channels\nChannel positions: Front: L R\nSampling rate: 48.0 KHz\nBit depth: 16 bits\nCompression mode: Lossy\nStream size: 85.7 MiB (6%)\nAlignment: Split accross interleaves\nInterleave, duration: 33 ms (1.00 video frame)\nInterleave, preload duration: 500 ms\n\n &lt;a href=&quot;\nhttp://www.imdb.com/title/tt1171222/&quot; rel=&quot;nofollow&quot; target=&quot;_NEW&quot;&gt;\nhttp://www.imdb.com/title/tt1171222/&lt;/a&gt;\n\nStoryline\n\nDetermined to get engaged before her youngest sister's wedding, flight attendant Montana Moore (Paula Patton) finds herself with only 30 days to find Mr. Right. Using her airline connections to &quot;accidentally&quot; meet up with eligible ex-boyfriends and scour for potential candidates, she racks up more than 30,000 miles and countless comedic encounters, all the while searching for the perfect guy\n\nSource Used baggage claim HDCAM Blacktop - Thanks\n\nGreets now going out to !\n\nJUSTiCE,KiSSMYACE and the rest can just KMA :lol:\n\nWork done blah whats the point","torrent":{"xt":"urn:btih:4407ba41694e6328b673cff3190872624143f539","amp;dn":"Baggage+Claim+2013+CAM+XViD+UNiQUE","amp;tr":["udp%3A%2F%2Ftracker.openbittorrent.com%3A80","udp%3A%2F%2Fopen.demonii.com%3A1337","udp%3A%2F%2Ftracker.coppersurfer.tk%3A6969","udp%3A%2F%2Fexodus.desync.com%3A6969"],"infoHash":"4407ba41694e6328b673cff3190872624143f539","infoHashBuffer":{"type":"Buffer","data":[68,7,186,65,105,78,99,40,182,115,207,243,25,8,114,98,65,67,245,57]},"announce":[],"urlList":[]}}